<?xml version="1.0" encoding="utf-8"?>
<!-- Generator: Adobe Illustrator 26.5.0, SVG Export Plug-In . SVG Version: 6.00 Build 0)  -->
<svg version="1.1" id="Layer_1" xmlns="http://www.w3.org/2000/svg" xmlns:xlink="http://www.w3.org/1999/xlink" x="0px" y="0px"
	 viewBox="0 0 512 512" style="enable-background:new 0 0 512 512;" xml:space="preserve">
<style type="text/css">
	.st0{fill:#5F6368;}
	.st1{fill:#4285F4;}
	.st2{fill:#34A853;}
	.st3{fill:#FBBC04;}
	.st4{fill:#EA4335;}
</style>
<g>
	<path class="st0" d="M242,253.46v59.5h-19.19V165.81h49.91c12.15,0,23.66,4.47,32.63,12.79c8.96,7.67,13.44,19.19,13.44,31.35
		s-4.47,23.03-13.44,31.35c-8.96,8.32-19.83,12.79-32.63,12.79L242,253.46z M242,183.72v51.19h32c7.04,0,14.08-2.57,18.56-7.67
		c10.24-9.59,10.24-25.59,0.63-35.19l-0.63-0.65c-5.12-5.12-11.52-8.32-18.56-7.67H242z"/>
	<path class="st0" d="M362.93,209.32c14.08,0,24.95,3.83,33.27,11.52c8.32,7.67,12.15,17.91,12.15,30.71v61.43h-17.91v-14.08h-0.63
		c-7.67,11.52-18.56,17.28-31.35,17.28c-10.87,0-20.48-3.2-28.15-9.59c-7.04-6.4-11.52-15.36-11.52-24.95
		c0-10.24,3.84-18.54,11.52-24.95c7.67-6.4,18.54-8.96,31.35-8.96c11.52,0,20.48,1.92,27.51,6.4v-4.47c0-6.4-2.55-12.79-7.67-16.64
		c-5.12-4.47-11.52-7.04-18.56-7.04c-10.87,0-19.19,4.47-24.95,13.44l-16.64-10.24C331.58,215.71,345.02,209.32,362.93,209.32z
		 M338.62,282.25c0,5.12,2.55,9.59,6.4,12.15c4.47,3.2,9.59,5.12,14.71,5.12c7.67,0,15.36-3.2,21.11-8.95
		c6.4-5.77,9.59-12.79,9.59-20.48c-5.75-4.47-14.08-7.04-24.95-7.04c-7.67,0-14.08,1.92-19.19,5.75
		C341.17,272.01,338.62,276.49,338.62,282.25z"/>
	<polygon class="st0" points="512,212.52 448.67,357.74 429.46,357.74 453.14,307.2 411.55,213.15 432.03,213.15 462.09,285.44 
		462.73,285.44 492.16,213.15 512,213.15 	"/>
	<path class="st1" d="M165.88,240.67c0-5.77-0.65-11.52-1.28-17.28H84.63v32.63h45.42c-1.92,10.24-7.67,19.83-16.64,25.59v21.11
		h27.51C156.91,288.01,165.88,266.25,165.88,240.67z"/>
	<path class="st2" d="M84.61,323.19c23.03,0,42.22-7.67,56.31-20.48l-27.51-21.11c-7.67,5.12-17.28,8.32-28.78,8.32
		c-21.76,0-40.95-14.71-47.34-35.19H9.12v21.76C23.83,305.28,52.63,323.19,84.61,323.19z"/>
	<path class="st3" d="M37.27,254.74c-3.84-10.24-3.84-21.76,0-32.63v-21.76H9.12c-12.16,23.68-12.16,51.83,0,76.14L37.27,254.74z"/>
	<path class="st4" d="M84.61,187.56c12.16,0,23.68,4.47,32.63,12.79l24.32-24.31c-15.36-14.07-35.83-22.39-56.31-21.76
		c-32,0-61.41,17.91-75.49,46.71l28.15,21.74C43.67,202.28,62.86,187.56,84.61,187.56z"/>
</g>
</svg>
