<?xml version="1.0" encoding="UTF-8"?>
<svg xmlns="http://www.w3.org/2000/svg" version="1.1" viewBox="0 0 512 512">
  <!-- Generator: Adobe Illustrator 28.6.0, SVG Export Plug-In . SVG Version: 1.2.0 Build 709)  -->
  <g>
    <g id="Layer_1">
      <g id="Layer_1-2" data-name="Layer_1">
        <path d="M512,170.09v128.31h-29.2v-128.31h29.2ZM472.06,213.4v85.24h-25.95v-7.35c-3.28,3.2-7.04,5.63-11.18,7.35-4.18,1.8-8.72,2.74-13.56,2.74-6.1,0-11.76-1.13-16.96-3.4-5.2-2.38-9.73-5.63-13.56-9.69-3.87-4.1-6.92-8.87-9.18-14.3-2.15-5.55-3.2-11.53-3.2-17.9s1.06-12.27,3.2-17.71c2.27-5.55,5.32-10.4,9.18-14.5,3.82-4.07,8.44-7.32,13.56-9.54,5.2-2.38,10.87-3.6,16.96-3.6,4.85,0,9.38.9,13.56,2.74,4.18,1.72,7.93,4.14,11.18,7.35v-7.35h25.95v-.08h0ZM426.05,275.42c5.32,0,9.65-1.8,13.05-5.47,3.52-3.63,5.28-8.29,5.28-13.95s-1.76-10.36-5.28-13.95c-3.4-3.63-7.78-5.47-13.05-5.47s-9.73,1.8-13.25,5.47c-3.4,3.63-5.08,8.29-5.08,13.95s1.72,10.36,5.08,13.95c3.52,3.63,7.93,5.47,13.25,5.47ZM336.79,170.09c7.7,0,14.27,1.09,19.7,3.24,5.43,2.15,10.01,5.16,13.76,9.03,3.83,3.99,6.84,8.52,8.99,13.64,2.15,5.12,3.2,10.63,3.2,16.53s-1.06,11.41-3.2,16.53c-2.11,5.07-5.16,9.7-8.99,13.64-3.71,3.87-8.32,6.88-13.76,9.03s-12,3.24-19.7,3.24h-14.07v43.62h-29.7v-128.51h43.77ZM332.53,228.56c3.99,0,7-.39,9.18-1.21,2.27-.9,4.14-2.07,5.59-3.4,3.05-2.85,4.57-6.64,4.57-11.41s-1.52-8.56-4.57-11.41c-1.49-1.37-3.32-2.46-5.59-3.24-2.15-.9-5.2-1.37-9.18-1.37h-9.85v32.05h9.85ZM183.58,213.4h32.24l21.89,40.88h.35l19.5-40.88h29.86l-63.98,128.51h-29.7l29.2-58.78-39.36-69.73h0ZM177.83,213.4v85.24h-25.95v-7.35c-3.28,3.2-7.04,5.63-11.18,7.35-4.18,1.8-8.72,2.74-13.56,2.74-6.1,0-11.76-1.13-16.96-3.4-5.2-2.38-9.73-5.63-13.56-9.69-3.83-4.1-6.92-8.87-9.18-14.3-2.15-5.55-3.2-11.53-3.2-17.9s1.06-12.27,3.2-17.71c2.27-5.55,5.32-10.4,9.18-14.5,3.81-4.08,8.43-7.33,13.56-9.54,5.2-2.38,10.87-3.6,16.96-3.6,4.85,0,9.38.9,13.56,2.74,4.18,1.72,7.93,4.14,11.18,7.35v-7.35h25.95v-.08h0ZM131.83,275.42c5.32,0,9.65-1.8,13.09-5.47,3.52-3.63,5.28-8.29,5.28-13.95s-1.76-10.36-5.28-13.95c-3.4-3.63-7.78-5.47-13.09-5.47s-9.73,1.8-13.25,5.47c-3.4,3.63-5.08,8.29-5.08,13.95s1.72,10.36,5.08,13.95c3.52,3.63,7.93,5.47,13.25,5.47ZM43.77,170.09c7.7,0,14.27,1.09,19.7,3.24,5.43,2.15,10.01,5.16,13.76,9.03,3.83,3.99,6.84,8.52,8.99,13.64,2.15,5.12,3.2,10.63,3.2,16.53s-1.06,11.41-3.2,16.53c-2.11,5.07-5.16,9.7-8.99,13.64-3.71,3.87-8.32,6.88-13.76,9.03s-12,3.24-19.7,3.24h-14.07v43.62H0v-128.51h43.77ZM39.55,228.56c3.99,0,7-.39,9.18-1.21,2.27-.9,4.14-2.07,5.59-3.4,3.05-2.85,4.57-6.64,4.57-11.41s-1.52-8.56-4.57-11.41c-1.49-1.37-3.32-2.46-5.59-3.24-2.15-.9-5.2-1.37-9.18-1.37h-9.85v32.05h9.85Z"/>
      </g>
    </g>
  </g>
</svg>