<?xml version="1.0" encoding="utf-8"?>
<!-- Generator: Adobe Illustrator 26.3.1, SVG Export Plug-In . SVG Version: 6.00 Build 0)  -->
<svg version="1.1" id="Layer_1" xmlns="http://www.w3.org/2000/svg" xmlns:xlink="http://www.w3.org/1999/xlink" x="0px" y="0px"
	 viewBox="0 0 512 512" style="enable-background:new 0 0 512 512;" xml:space="preserve">
<style type="text/css">
	.st0{fill-rule:evenodd;clip-rule:evenodd;}
</style>
<g>
	<path class="st0" d="M150.26,3.14C108.59,5.03,72.47,15.21,43.3,44.25c-29.27,29.2-39.33,65.46-41.22,106.7
		c-1.17,25.74-8.02,220.2,11.85,271.2c13.4,34.4,39.79,60.86,74.51,74.3c16.2,6.3,34.69,10.58,61.82,11.81
		c226.84,10.26,310.92,4.68,346.38-86.11c6.29-16.16,10.62-34.64,11.82-61.7c10.37-227.41-1.68-276.71-41.22-316.2
		C435.89,12.98,399.01-8.31,150.26,3.14 M152.35,462.53c-24.84-1.11-38.31-5.26-47.3-8.74c-22.62-8.79-39.61-25.71-48.35-48.2
		c-15.13-38.75-10.11-222.8-8.76-252.58c1.32-29.18,7.23-55.83,27.82-76.41c25.47-25.41,58.38-37.86,282.47-27.75
		c29.24,1.33,55.96,7.23,76.6,27.75c25.47,25.41,38.11,58.58,27.82,281.8c-1.12,24.78-5.27,38.21-8.76,47.19
		C430.82,464.67,377.79,472.88,152.35,462.53 M360.7,120.05c0,16.83,13.68,30.5,30.57,30.5c16.89,0,30.59-13.68,30.59-30.5
		c0-16.81-13.7-30.49-30.59-30.49C374.38,89.56,360.7,103.24,360.7,120.05 M124.48,255.69c0,72.06,58.56,130.49,130.8,130.49
		s130.8-58.43,130.8-130.49s-58.56-130.45-130.8-130.45S124.48,183.63,124.48,255.69 M170.39,255.69c0-46.75,38.01-84.69,84.9-84.69
		c46.9,0,84.9,37.94,84.9,84.69c0,46.79-38.01,84.73-84.9,84.73C208.39,340.42,170.39,302.48,170.39,255.69"/>
</g>
</svg>
