<?xml version="1.0" encoding="utf-8"?>
<!-- Generator: Adobe Illustrator 24.1.1, SVG Export Plug-In . SVG Version: 6.00 Build 0)  -->
<svg version="1.1" id="Layer_1" xmlns="http://www.w3.org/2000/svg" xmlns:xlink="http://www.w3.org/1999/xlink" x="0px" y="0px"
	 viewBox="0 0 512 512" style="enable-background:new 0 0 512 512;" xml:space="preserve">
<g>
	<path d="M512,311.34v189.29H402.27V324.01c0-44.39-15.88-74.65-55.59-74.65c-30.34,0-48.37,20.42-56.32,40.13
		c-2.91,7.06-3.63,16.88-3.63,26.75v184.38h-109.8c0,0,1.48-299.11,0-330.13h109.8v46.8l-0.73,1.08h0.73v-1.08
		c14.55-22.45,40.61-54.54,98.9-54.54C457.86,162.76,512,209.96,512,311.34z M62.13,11.37C24.58,11.37,0,36,0,68.39
		c0,31.69,23.87,57.07,60.67,57.07h0.73c38.3,0,62.08-25.38,62.08-57.07C122.8,36,99.73,11.37,62.15,11.37H62.13z M6.54,500.63
		h109.73V170.5H6.54V500.63z"/>
</g>
</svg>
