<?xml version="1.0" encoding="utf-8"?>
<!-- Generator: Adobe Illustrator 21.0.0, SVG Export Plug-In . SVG Version: 6.00 Build 0)  -->
<svg version="1.1" id="Layer_1" xmlns="http://www.w3.org/2000/svg" xmlns:xlink="http://www.w3.org/1999/xlink" x="0px" y="0px"
	 viewBox="0 0 512 512" style="enable-background:new 0 0 512 512;" xml:space="preserve">
<g>
	<path d="M256,105.5c-68.1,0-131.6,18.3-175,47.5H0c13.3,15.5,23.1,36.6,25.5,51C10.2,225,1,251,1,279
		c0,70.4,57.1,127.5,127.5,127.5c39.9,0,75.6-18.8,99-47.5c9.5,11.1,25.3,33.5,28.5,40c0,0,18.2-26.9,28.5-39.5
		c23.4,28.7,59.1,47,99,47c70.4,0,127.5-57.1,127.5-127.5c0-27.9-9.2-54-24.5-75c2.4-14.4,12.3-35.5,25.5-51h-85
		C383.6,123.8,324,105.5,256,105.5z M256,127c45.6,0,87,8.6,123.5,24.5C311,153.6,256,209.9,256,279c0-70.3-56.7-127.4-127-127.5
		C165.4,135.6,210.4,127,256,127z M128.5,176c56.7,0,102.5,46.4,102.5,103c0,56.7-45.9,102.5-102.5,102.5
		C71.8,381.5,26,335.7,26,279C26,222.4,71.8,176,128.5,176z M383.5,176c56.6,0,102.5,46.4,102.5,103c0,56.7-45.9,102.5-102.5,102.5
		C326.8,381.5,281,335.7,281,279C281,222.4,326.8,176,383.5,176z M127,216.5c-34.2,0-62,27.8-62,62s27.8,62,62,62s62-27.8,62-62
		S161.2,216.5,127,216.5z M383.5,216.5c-34.2,0-62,27.8-62,62s27.8,61.5,62,61.5s62-27.3,62-61.5S417.7,216.5,383.5,216.5z
		 M127,235.5c23.7,0,43,19.3,43,43s-19.3,43-43,43s-43-19.3-43-43S103.3,235.5,127,235.5z M383.5,235.5c23.7,0,43,19.3,43,43
		s-19.3,42.5-43,42.5s-43-18.8-43-42.5S359.8,235.5,383.5,235.5z M124,257.5c-11.5,0-21,9.5-21,21s9.5,21,21,21s20.5-9.5,20.5-21
		S135.5,257.5,124,257.5z M380,257.5c-11.5,0-20.5,9.5-20.5,21s9,20.5,20.5,20.5s21-9,21-20.5S391.5,257.5,380,257.5z"/>
</g>
</svg>
