<svg xmlns="http://www.w3.org/2000/svg" fill-rule="evenodd" image-rendering="optimizeQuality" shape-rendering="geometricPrecision" viewBox="0 0 165.45 40.99"><path fill="#fff" stroke="#292b6e" stroke-width=".78" d="M11.778.39h141.893c6.263 0 11.388 5.17 11.388 11.49v17.231c0 6.32-5.124 11.49-11.388 11.49H11.778C5.514 40.601.39 35.43.39 29.111V11.88C.39 5.56 5.514.39 11.778.39z"/><path fill="#292b6e" stroke="#1f1a17" stroke-width=".18" d="M74.123 28.302h26.695c2.053 0 3.732 1.537 3.732 3.417v1.723c0 1.879-1.679 3.417-3.732 3.417H74.123c-2.053 0-3.732-1.538-3.732-3.417v-1.724c0-1.879 1.679-3.417 3.732-3.417z"/><g fill-rule="nonzero"><path fill="#fff" d="M74.655 30.327h2.028q.599 0 .969.164c.37.164.449.266.61.47s.277.442.35.714a3.4 3.4 0 0 1 .108.862q0 .714-.161 1.107c-.161.393-.256.482-.447.658s-.395.295-.614.354a3.1 3.1 0 0 1-.813.121h-2.028v-4.451zm1.365 1.008v2.431h.334q.429 0 .609-.095a.65.65 0 0 0 .284-.334q.102-.239.102-.773 0-.707-.228-.968c-.228-.261-.406-.261-.76-.261h-.34zm3.414-1.008h3.657v.95h-2.289v.708h2.124v.908h-2.124v.877h2.356v1.008h-3.724zm4.148 0h4.149v1.1h-1.393v3.351h-1.365v-3.351h-1.391zm7.065 3.716h-1.555l-.214.735h-1.395l1.66-4.451h1.488l1.661 4.451h-1.428zm-.286-.963-.489-1.6-.485 1.6zm2.367-2.754h1.366v3.355h2.13v1.096h-3.496zm4.17 0h1.368v4.451h-1.368zm2.401 0h1.368v4.451H99.3z"/><path fill="#292b6e" d="m22.618 11.169 1.92-.124q.062.482.254.737.311.41.891.409.43 0 .666-.209c.236-.209.233-.302.233-.485q0-.261-.222-.47c-.222-.209-.493-.269-1.034-.391q-1.327-.308-1.892-.818a1.67 1.67 0 0 1-.57-1.302 1.8 1.8 0 0 1 .292-.983q.292-.462.877-.727c.585-.265.926-.264 1.605-.264q1.253 0 1.909.481c.656.481.698.831.781 1.53l-1.902.115q-.076-.455-.319-.663c-.243-.208-.385-.206-.669-.206q-.354-.001-.53.154c-.176.155-.178.228-.178.375q0 .16.146.289c.146.129.321.171.678.248q1.322.295 1.894.597c.572.302.66.449.833.748s.261.63.261.999a2.2 2.2 0 0 1-.348 1.195 2.2 2.2 0 0 1-.971.831q-.622.282-1.572.283-1.665 0-2.306-.663c-.641-.663-.67-1.002-.727-1.684zm6.684-1.137q0-1.652.891-2.571c.891-.919 1.421-.92 2.481-.92q1.63 0 2.513.905c.883.905.882 1.447.882 2.532q0 1.183-.386 1.94c-.386.757-.628.897-1.113 1.178s-1.09.421-1.815.421q-1.103 0-1.829-.363c-.726-.363-.873-.627-1.173-1.151s-.45-1.181-.45-1.969zm2.019.009q0 1.022.366 1.468c.366.446.579.446 1 .446q.65 0 1.006-.437c.356-.437.357-.815.357-1.569q0-.953-.372-1.393c-.372-.44-.584-.438-1.009-.438q-.61 0-.979.446c-.369.446-.369.79-.369 1.476zm5.832-3.386h2.019v5.084h3.148v1.662h-5.167zm10.096 0h2.014v4.022q0 .598-.181 1.129a2.5 2.5 0 0 1-.565.93 2.24 2.24 0 0 1-.809.559q-.587.224-1.412.225a8 8 0 0 1-1.04-.069q-.563-.07-.941-.273a2.4 2.4 0 0 1-.693-.583 2.15 2.15 0 0 1-.43-.777 4.1 4.1 0 0 1-.187-1.14V6.655h2.014v4.118q0 .554.295.862c.295.308.471.311.822.311s.62-.102.818-.306.295-.493.295-.867zm2.891 0h6.132v1.666h-2.058V13.4h-2.017V8.322H50.14zm2.084 7.504.134-.542a3.2 3.2 0 0 1 .783-.107q.762 0 1.052.267a.83.83 0 0 1 .289.631.94.94 0 0 1-.131.455q-.132.234-.47.377c-.338.143-.526.143-.9.143q-.508-.001-1.193-.119v-.567a5 5 0 0 0 .983.093q.383 0 .52-.107a.33.33 0 0 0 .135-.275.3.3 0 0 0-.111-.231q-.111-.096-.348-.096a4 4 0 0 0-.743.077zm5.04-7.504h2.022v6.746h-2.022zm3.215 3.377q0-1.652.891-2.571c.891-.919 1.421-.92 2.481-.92q1.63 0 2.513.905c.883.905.882 1.447.882 2.532q0 1.183-.386 1.94c-.386.757-.628.897-1.113 1.178s-1.09.421-1.815.421q-1.103 0-1.829-.363c-.726-.363-.873-.627-1.173-1.151s-.45-1.181-.45-1.969zm2.019.009q0 1.022.366 1.468c.366.446.579.446 1 .446q.65 0 1.006-.437c.356-.437.357-.815.357-1.569q0-.953-.372-1.393c-.372-.44-.584-.438-1.009-.438q-.61 0-.979.446c-.369.446-.369.79-.369 1.476zm5.846-3.386h1.885l2.458 3.732V6.655h1.902v6.746h-1.902l-2.446-3.703v3.703h-1.897zm11.511 5.632h-2.298l-.316 1.113H75.18l2.453-6.746h2.199l2.455 6.746h-2.111zm-.423-1.459-.722-2.425-.717 2.425zm3.527 2.573V6.655h3.362q.935 0 1.429.166a1.53 1.53 0 0 1 .798.614q.303.45.303 1.092 0 .562-.231.969a1.84 1.84 0 0 1-.637.661 2.4 2.4 0 0 1-.708.265q.36.124.526.25a2 2 0 0 1 .322.353q.212.27.283.419l.976 1.955h-2.28l-1.078-2.062q-.205-.4-.366-.52a.83.83 0 0 0-.494-.155h-.178v2.737H82.96zm2.026-4.013h.851q.137 0 .533-.091a.54.54 0 0 0 .328-.212.64.64 0 0 0 .126-.391q0-.327-.201-.501c-.201-.174-.385-.176-.752-.176h-.886zm5.037-2.733h5.405v1.44h-3.384v1.073h3.139v1.376h-3.139v1.329h3.482v1.528h-5.504V6.655zm10.607 5.632h-2.298l-.316 1.113h-2.061l2.453-6.746h2.199l2.455 6.746h-2.111zm-.423-1.459-.722-2.425-.717 2.425zm6.287-.796q0-1.652.891-2.571c.891-.919 1.421-.92 2.481-.92q1.63 0 2.513.905c.883.905.882 1.447.882 2.532q0 1.183-.386 1.94c-.386.757-.628.897-1.113 1.178s-1.09.421-1.815.421q-1.104 0-1.829-.363c-.725-.363-.873-.627-1.173-1.151s-.45-1.181-.45-1.969zm2.019.009q0 1.022.366 1.468c.366.446.579.446 1 .446q.65 0 1.006-.437c.356-.437.357-.815.357-1.569q0-.953-.372-1.393c-.372-.44-.584-.438-1.009-.438q-.61 0-.979.446c-.369.446-.369.79-.369 1.476zm5.846-3.386h1.885l2.458 3.732V6.655h1.902v6.746h-1.902l-2.446-3.703v3.703h-1.897zm7.584 0h2.019v5.084h3.148v1.662h-5.167zm6.164 0h2.022v6.746h-2.022zm3.482 0h1.885l2.458 3.732V6.655h1.902v6.746h-1.902l-2.446-3.703v3.703h-1.897zm7.581 0h5.405v1.44h-3.384v1.073h3.139v1.376h-3.139v1.329h3.482v1.528h-5.504V6.655zM60.434 23.176h-2.3l-.316 1.098h-2.063l2.455-6.651h2.201l2.457 6.651h-2.113zm-.423-1.439-.723-2.391-.718 2.391zm6.546-4.115h2.02v5.013h3.15v1.638h-5.171v-6.651zm6.168 0h2.023v6.651h-2.023zm3.013 0h6.137v1.643h-2.06v5.008h-2.019v-5.008h-2.058zm7.13 0h2.023v6.651h-2.023zm6.757 4.242v-1.383h3.118v2.835q-.894.621-1.584.846c-.69.225-1.004.225-1.634.225q-1.163 0-1.895-.404a2.73 2.73 0 0 1-1.136-1.202c-.267-.533-.405-1.143-.405-1.832q0-1.089.441-1.896a2.9 2.9 0 0 1 1.293-1.222q.665-.322 1.787-.322 1.082 0 1.62.2a2.1 2.1 0 0 1 .891.62q.354.418.533 1.064l-1.947.353a1.08 1.08 0 0 0-.409-.576q-.287-.2-.732-.2-.665 0-1.059.469c-.394.469-.396.808-.396 1.487q0 1.08.4 1.542c.4.462.636.463 1.112.463a2 2 0 0 0 .645-.101q.308-.1.704-.339v-.627h-1.349zm4.398-4.242h2.023v6.651h-2.023zm3.552 0h2.023v6.651h-2.023zm3.471 0h2.02v5.013h3.15v1.638h-5.171zm5.677 3.33q0-1.629.891-2.535c.891-.906 1.422-.908 2.483-.908q1.632 0 2.515.892c.883.892.882 1.426.882 2.496q0 1.166-.386 1.913a2.8 2.8 0 0 1-1.114 1.162q-.729.416-1.816.415-1.104 0-1.83-.358c-.726-.358-.873-.618-1.174-1.135s-.45-1.164-.45-1.942zm2.02.009q0 1.008.367 1.448c.367.44.58.44 1.001.44q.651 0 1.007-.431c.356-.431.357-.804.357-1.547q0-.94-.373-1.374c-.373-.434-.584-.432-1.01-.432q-.61 0-.98.44c-.37.44-.37.779-.37 1.456zm5.864 3.312v-6.651h3.365q.936 0 1.43.164a1.52 1.52 0 0 1 .799.606q.303.441.303 1.076 0 .554-.231.956a1.85 1.85 0 0 1-.637.652 2.4 2.4 0 0 1-.709.262q.36.123.526.246.11.081.323.348c.213.267.236.316.283.413l.977 1.928h-2.282l-1.078-2.033q-.205-.393-.367-.512a.84.84 0 0 0-.494-.153h-.178v2.699h-2.028zm2.028-3.957h.852q.136 0 .534-.09a.54.54 0 0 0 .328-.209.62.62 0 0 0 .126-.386q0-.322-.201-.494c-.201-.172-.385-.173-.753-.173h-.887z"/></g></svg>