<svg xmlns="http://www.w3.org/2000/svg" xml:space="preserve" id="Layer_1" x="0" y="0" viewBox="0 0 512 512"><style>.st0{fill:#5f6368}</style><path d="M242 253.46v59.5h-19.19V165.81h49.91c12.15 0 23.66 4.47 32.63 12.79 8.96 7.67 13.44 19.19 13.44 31.35s-4.47 23.03-13.44 31.35c-8.96 8.32-19.83 12.79-32.63 12.79zm0-69.74v51.19h32c7.04 0 14.08-2.57 18.56-7.67 10.24-9.59 10.24-25.59.63-35.19l-.63-.65c-5.12-5.12-11.52-8.32-18.56-7.67h-32zM362.93 209.32c14.08 0 24.95 3.83 33.27 11.52 8.32 7.67 12.15 17.91 12.15 30.71v61.43h-17.91V298.9h-.63c-7.67 11.52-18.56 17.28-31.35 17.28-10.87 0-20.48-3.2-28.15-9.59-7.04-6.4-11.52-15.36-11.52-24.95 0-10.24 3.84-18.54 11.52-24.95 7.67-6.4 18.54-8.96 31.35-8.96 11.52 0 20.48 1.92 27.51 6.4v-4.47c0-6.4-2.55-12.79-7.67-16.64-5.12-4.47-11.52-7.04-18.56-7.04-10.87 0-19.19 4.47-24.95 13.44l-16.64-10.24c10.23-13.47 23.67-19.86 41.58-19.86m-24.31 72.93c0 5.12 2.55 9.59 6.4 12.15 4.47 3.2 9.59 5.12 14.71 5.12 7.67 0 15.36-3.2 21.11-8.95 6.4-5.77 9.59-12.79 9.59-20.48-5.75-4.47-14.08-7.04-24.95-7.04-7.67 0-14.08 1.92-19.19 5.75-5.12 3.21-7.67 7.69-7.67 13.45M512 212.52l-63.33 145.22h-19.21l23.68-50.54-41.59-94.05h20.48l30.06 72.29h.64l29.43-72.29H512z" class="st0"/><path d="M165.88 240.67c0-5.77-.65-11.52-1.28-17.28H84.63v32.63h45.42c-1.92 10.24-7.67 19.83-16.64 25.59v21.11h27.51c15.99-14.71 24.96-36.47 24.96-62.05" style="fill:#4285f4"/><path d="M84.61 323.19c23.03 0 42.22-7.67 56.31-20.48l-27.51-21.11c-7.67 5.12-17.28 8.32-28.78 8.32-21.76 0-40.95-14.71-47.34-35.19H9.12v21.76c14.71 28.79 43.51 46.7 75.49 46.7" style="fill:#34a853"/><path d="M37.27 254.74c-3.84-10.24-3.84-21.76 0-32.63v-21.76H9.12c-12.16 23.68-12.16 51.83 0 76.14z" style="fill:#fbbc04"/><path d="M84.61 187.56c12.16 0 23.68 4.47 32.63 12.79l24.32-24.31c-15.36-14.07-35.83-22.39-56.31-21.76-32 0-61.41 17.91-75.49 46.71l28.15 21.74c5.76-20.45 24.95-35.17 46.7-35.17" style="fill:#ea4335"/></svg>