<svg xmlns="http://www.w3.org/2000/svg" xml:space="preserve" viewBox="0 0 512 512"><path d="M333.48 173.05c-36.35 0-68.84 18.84-68.84 53.66 0 39.92 57.62 42.68 57.62 62.74 0 8.45-9.68 16.01-26.21 16.01-23.46 0-40.99-10.56-40.99-10.56l-7.5 35.13s20.2 8.92 47.01 8.92c39.75 0 71.02-19.77 71.02-55.18 0-42.19-57.86-44.86-57.86-63.48 0-6.62 7.94-13.86 24.43-13.86 18.6 0 33.77 7.68 33.77 7.68l7.34-33.93c.01 0-16.5-7.13-39.79-7.13M.88 175.61 0 180.74s15.29 2.8 29.07 8.38c17.74 6.4 19 10.13 21.99 21.71l32.55 125.48h43.63l67.22-160.69h-43.53l-43.19 109.25-17.63-92.61c-1.62-10.6-9.8-16.65-19.83-16.65zm211.09 0L177.82 336.3h41.51l34.03-160.69zm231.53 0c-10.01 0-15.31 5.36-19.21 14.72L363.47 336.3H407l8.42-24.33h53.04l5.12 24.33H512l-33.51-160.69zm5.66 43.42 12.9 60.3h-34.57z" style="fill:#1434cb"/></svg>