<svg xmlns="http://www.w3.org/2000/svg" data-name="Layer 1" viewBox="0 0 4635.92 708.22"><title>Tripadvisor_Logo_horizontal-lockup_registered_RGB</title><path d="M4610.9 550.55a25 25 0 1 0 25 25 25 25 0 0 0-25-25m0 46.08a21.08 21.08 0 1 1 21.08-21.07 21.09 21.09 0 0 1-21.08 21.07m8.12-25.33c0-4.55-3.25-7.25-8-7.25h-8v22.77h3.94v-8.26h4.26l4.13 8.26h4.23l-4.47-9.11a6.59 6.59 0 0 0 3.91-6.41m-8.16 3.78h-3.87v-7.55h3.87c2.63 0 4.23 1.33 4.23 3.77s-1.6 3.81-4.23 3.81ZM373.28 409.42a97.95 97.95 0 1 1-97.94-97.94 97.94 97.94 0 0 1 97.94 97.94m552.18 0a97.95 97.95 0 1 1-97.95-97.94 97.95 97.95 0 0 1 97.95 97.94M903.11 108.2C802.98 39.88 682.11 0 551.43 0a619.47 619.47 0 0 0-351 108.2H0l90.17 98.12A274.9 274.9 0 0 0 .28 409.98c0 152.19 123.38 275.57 275.57 275.57a274.54 274.54 0 0 0 187.26-73.44l88.34 96.12 88.32-96.12A274.54 274.54 0 0 0 827 685.51c152.19 0 275.68-123.38 275.68-275.57a274.9 274.9 0 0 0-89.89-203.66l90.17-98.12ZM275.85 596.47c-103 0-186.49-83.49-186.49-186.49s83.5-186.49 186.49-186.49 186.5 83.49 186.5 186.49-83.5 186.49-186.5 186.49m275.63-191.86c0-122.73-89.26-228-207-273.06a538.15 538.15 0 0 1 413.93 0C640.73 176.6 551.48 281.89 551.48 404.61m462 5.37c0 103-83.5 186.49-186.49 186.49s-186.5-83.49-186.5-186.49 83.5-186.49 186.5-186.49 186.5 83.49 186.5 186.49Zm654.11-173.45h43.37v85.84h-50.75c-39.09 0-64.17 19.18-64.17 58.28v215.82h-92.78V236.53h92.78v60.48c8.12-42.78 37.63-60.48 71.56-60.48Zm186.35-85.59a56.06 56.06 0 0 1-112.12 0c0-31.72 24.34-56.8 56.06-56.8s56.07 25.08 56.07 56.8Zm-102.33 85.59h92.5v359.94h-92.53Zm347.35-6.08a179 179 0 0 0-109.22 36.52v-30.44h-92.52v465.58h92.52V566.03a179 179 0 0 0 109.22 36.52c102.76 0 186-83.3 186-186.05s-83.23-186.05-185.99-186.05Zm-8.15 287.12a101.07 101.07 0 1 1 101.07-101.07 101.07 101.07 0 0 1-101.06 101.07Zm1890.57-34.8c0 69.4-59.54 119.78-141.57 119.78-85.12 0-144.57-51.57-144.57-125.42v-2h90.54v2c0 30.82 22 51.53 54.78 51.53 31.42 0 52.53-15.33 52.53-38.14 0-21.61-14.61-33.69-53.89-44.56l-51.71-14.1c-54.34-14.71-85.5-50.12-85.5-97.14 0-60.42 57-104.27 135.57-104.27 79.3 0 132.58 43.88 132.58 109.21v2.05h-85.3v-2.05c0-22.18-20.77-39.55-47.28-39.55-27.84 0-47.28 12.78-47.28 31.09 0 18.76 13.84 29.66 49.36 38.91l54 14.81c72.52 19.35 87.75 63.89 87.75 97.85Zm-1368-215.8a179 179 0 0 0-109.27-36.52c-102.76 0-186.05 83.3-186.05 186.05s83.31 186.05 186.05 186.05a179 179 0 0 0 109.22-36.52v30.44h92.52V236.53h-92.52Zm0 149.54a101.07 101.07 0 1 1-101.07-101.08 101.08 101.08 0 0 1 101.04 101.08Zm426.73-149.54a179 179 0 0 0-109.22-36.52c-102.75 0-186.05 83.3-186.05 186.05s83.3 186.05 186.05 186.05a179 179 0 0 0 109.22-36.52v30.44h92.53V108.41h-92.53Zm-101.06 250.6a101.07 101.07 0 1 1 101.06-101.07A101.07 101.07 0 0 1 2939 517.57Zm623.34-281h92.53v359.9h-92.53Zm102.33-85.59a56.06 56.06 0 1 1-112.12 0c0-31.72 24.34-56.8 56.06-56.8s56.01 25.04 56.01 56.76Zm530.71 79.51c-102.75 0-186.05 83.3-186.05 186.05s83.3 186.05 186.05 186.05 186-83.3 186-186.05-83.32-186.09-186.05-186.09Zm0 287.12a101.07 101.07 0 1 1 101.07-101.07 101.06 101.06 0 0 1-101.12 101.03ZM1548.66 190.98h-131.41v405.49h-92.22V190.98h-131.41v-82.57h355Zm1877.76 45.55h97.21l-124.21 359.94h-111.31l-123.53-359.94h97.2l82.33 261.37Zm1162.19 0h43.37v85.84h-50.75c-39.09 0-64.18 19.18-64.18 58.28v215.82h-92.77V236.53h92.77v60.48c8.12-42.78 37.63-60.48 71.56-60.48"/></svg>